<?xml version="1.0" encoding="UTF-8"?>
<svg id="Layer_1" xmlns="http://www.w3.org/2000/svg" version="1.1" viewBox="0 0 100 125">
  <!-- Generator: Adobe Illustrator 29.8.2, SVG Export Plug-In . SVG Version: 2.1.1 Build 3)  -->
  <path d="M84.8,35.8c-.6,1.9-1.3,3.9-1.9,5.8,2,.3,4,.8,5.9,1.6.6-1.9,1.3-3.9,1.9-5.8-1.9-.8-3.9-1.3-5.9-1.6Z"/>
  <path d="M76.7,41c.6-1.9,1.3-3.9,1.9-5.8-2.1-.2-4.2-.3-6.3-.6-.6,1.9-1.3,3.9-1.9,5.8,2,.3,4.2.5,6.3.6Z"/>
  <path d="M70.4,40.4c-2-.3-4-.8-5.9-1.6-.6,1.9-1.3,3.9-1.9,5.8,1.9.8,3.9,1.3,5.9,1.6.6-1.9,1.3-3.9,1.9-5.8Z"/>
  <path d="M74.7,46.8c2.1.2,4.2.3,6.3.6.6-1.9,1.3-3.9,1.9-5.8-2-.3-4.2-.5-6.3-.6-.6,1.9-1.3,3.9-1.9,5.8Z"/>
  <path d="M79,53.3c2,.3,4,.8,5.9,1.6.6-1.9,1.3-3.9,1.9-5.8-1.9-.8-3.9-1.3-5.9-1.6-.6,1.9-1.3,3.9-1.9,5.8Z"/>
  <path d="M68.5,46.2c-.6,1.9-1.3,3.9-1.9,5.8,2,.3,4.2.5,6.3.6.6-1.9,1.3-3.9,1.9-5.8-2.1-.2-4.2-.3-6.3-.6Z"/>
  <path d="M98.2,34.9c-1.9-1.8-4.1-3.2-6.8-4.1-3.4-1.1-7.2-1.4-10.8-1.7-3.6-.3-7.3-.6-10.7-1.7-2.5-.8-4.6-2.1-6.4-3.8l.6-1.9-1.6-.5-12.4,37.3-12.4-37.3-1.6.5.6,1.9c-1.8,1.7-3.9,2.9-6.4,3.8-3.4,1.1-7.1,1.4-10.7,1.7-3.6.3-7.4.6-10.8,1.7-2.7.9-4.9,2.2-6.8,4.1h0c0,0,9.8,29.7,9.8,29.7l.2-.2c1.8-1.8,4-3.1,6.6-4,3.4-1.1,7.1-1.4,10.7-1.7,3.6-.3,7.4-.6,10.8-1.7,2.5-.8,4.6-2.1,6.4-3.7l2.7,8-5.4,16.1,1.6.5,4.6-13.9,4.6,13.9,1.6-.5-5.4-16.1,2.7-8c1.8,1.7,3.9,2.9,6.4,3.7,3.4,1.1,7.2,1.4,10.8,1.7,3.6.3,7.3.6,10.7,1.7,2.6.9,4.8,2.2,6.6,4l.2.2,9.8-29.6h0ZM41.3,56.1c-.6-1.9-1.2-3.7-1.9-5.6-1.9.8-3.9,1.3-5.9,1.6.6,1.9,1.2,3.7,1.9,5.6-2,.3-4.1.5-6.2.6,0,0,0,0,0,0-.6-1.9-1.2-3.7-1.9-5.6-2.1.2-4.2.3-6.3.6.6,1.9,1.2,3.7,1.9,5.6-1.5.2-3.1.6-4.5,1.1-.5.2-1,.3-1.4.5-.6-1.9-1.2-3.7-1.9-5.6-1.8.8-3.6,1.8-5.1,3.3l-1.9-5.8c1.6-1.5,3.3-2.6,5.1-3.3-.6-1.9-1.3-3.9-1.9-5.8-1.8.8-3.6,1.8-5.1,3.3l-1.9-5.8c1.6-1.5,3.3-2.6,5.1-3.3-.6-1.9-1.2-3.7-1.9-5.6.5-.2.9-.4,1.4-.5,1.5-.5,3-.8,4.5-1,.6,1.9,1.2,3.7,1.9,5.6,2-.3,4.2-.5,6.3-.6-.6-1.9-1.2-3.7-1.9-5.6,2.1-.2,4.2-.3,6.3-.6.6,1.9,1.2,3.7,1.9,5.6,2-.3,4-.8,5.9-1.6-.6-1.9-1.2-3.7-1.9-5.6,1.9-.8,3.6-1.8,5-3.2l1.9,5.6c-1.5,1.4-3.2,2.5-5,3.2.6,1.9,1.3,3.9,1.9,5.8,1.8-.7,3.5-1.8,5-3.2l1.9,5.8c-1.5,1.4-3.2,2.5-5,3.2.6,1.9,1.3,3.9,1.9,5.8,1.8-.7,3.5-1.8,5-3.2l1.9,5.6c-1.4,1.4-3.1,2.4-5,3.2ZM94,46.6c-1.6-1.5-3.3-2.6-5.1-3.3-.6,1.9-1.3,3.9-1.9,5.8,1.8.8,3.6,1.8,5.1,3.3l-1.9,5.8c-1.6-1.5-3.3-2.6-5.1-3.3-.6,1.9-1.2,3.7-1.9,5.6-.5-.2-.9-.4-1.4-.5-1.5-.5-3-.8-4.5-1.1.6-1.9,1.2-3.7,1.9-5.6-2-.3-4.2-.5-6.3-.6-.6,1.9-1.2,3.7-1.9,5.6,0,0,0,0,0,0-2.1-.2-4.2-.3-6.2-.6.6-1.9,1.2-3.7,1.9-5.6-2-.3-4-.8-5.9-1.6-.6,1.9-1.2,3.7-1.9,5.6-1.9-.8-3.6-1.9-5-3.2l1.9-5.6c1.5,1.4,3.2,2.5,5,3.2.6-1.9,1.3-3.9,1.9-5.8-1.8-.7-3.5-1.8-5-3.2l1.9-5.8c1.5,1.4,3.2,2.5,5,3.2.6-1.9,1.3-3.9,1.9-5.8-1.8-.7-3.5-1.8-5-3.2l1.9-5.6c1.5,1.3,3.1,2.4,5,3.2-.6,1.9-1.2,3.7-1.9,5.6,1.9.8,3.9,1.3,5.9,1.6.6-1.9,1.2-3.7,1.9-5.6,2.1.3,4.2.5,6.3.6-.6,1.9-1.2,3.7-1.9,5.6,2.1.2,4.2.3,6.3.6.6-1.9,1.2-3.7,1.9-5.6,1.5.2,3.1.6,4.5,1,.5.2,1,.3,1.4.5-.6,1.9-1.2,3.7-1.9,5.6,1.8.8,3.6,1.8,5.1,3.3l-1.9,5.8Z"/>
  <path d="M15.2,35.8c-2,.3-4,.8-5.9,1.6.6,1.9,1.3,3.9,1.9,5.8,1.9-.8,3.9-1.3,5.9-1.6-.6-1.9-1.3-3.9-1.9-5.8Z"/>
  <path d="M29.6,40.4c-.6-1.9-1.3-3.9-1.9-5.8-2,.3-4.2.5-6.3.6.6,1.9,1.3,3.9,1.9,5.8,2.1-.2,4.2-.3,6.3-.6Z"/>
  <path d="M31.5,46.2c2-.3,4-.8,5.9-1.6-.6-1.9-1.3-3.9-1.9-5.8-1.9.8-3.9,1.3-5.9,1.6.6,1.9,1.3,3.9,1.9,5.8Z"/>
  <path d="M17.1,41.6c.6,1.9,1.3,3.9,1.9,5.8,2-.3,4.2-.5,6.3-.6-.6-1.9-1.3-3.9-1.9-5.8-2.1.2-4.2.3-6.3.6Z"/>
  <path d="M13.1,49.1c.6,1.9,1.3,3.9,1.9,5.8,1.9-.8,3.9-1.3,5.9-1.6-.6-1.9-1.3-3.9-1.9-5.8-2,.3-4,.8-5.9,1.6Z"/>
  <path d="M25.3,46.8c.6,1.9,1.3,3.9,1.9,5.8,2.1-.2,4.2-.3,6.3-.6-.6-1.9-1.3-3.9-1.9-5.8-2,.3-4.2.5-6.3.6Z"/>
</svg>